Coordinates
version=1
nRows=6
nColumns=40
inDegrees=yes

Units are S.I. units (second, meters, Newtons, ...)
If the header above contains a line with 'inDegrees', this indicates whether rotational values are in degrees (yes) or radians (no).

endheader
time	pelvis_tilt	pelvis_list	pelvis_rotation	pelvis_tx	pelvis_ty	pelvis_tz	hip_flexion_r	hip_adduction_r	hip_rotation_r	knee_angle_r	knee_angle_r_beta	ankle_angle_r	subtalar_angle_r	mtp_angle_r	hip_flexion_l	hip_adduction_l	hip_rotation_l	knee_angle_l	knee_angle_l_beta	ankle_angle_l	subtalar_angle_l	mtp_angle_l	lumbar_extension	lumbar_bending	lumbar_rotation	arm_flex_r	arm_add_r	arm_rot_r	elbow_flex_r	pro_sup_r	wrist_flex_r	wrist_dev_r	arm_flex_l	arm_add_l	arm_rot_l	elbow_flex_l	pro_sup_l	wrist_flex_l	wrist_dev_l
      5.42499999999999982236	     12.31004049744793249488	      0.65945343423716940023	   -177.75260284858637760408	      0.37883034187415898231	      0.76251071765387234969	     -0.98565162766040270714	     33.53842226644935209379	    -38.31832465093210515761	    -38.80099350632231391955	     21.87799777073452744958	      0.38184309484329703732	    -19.27027712109148538389	      0.00000000000000000000	      0.00000000000000000000	     33.41209226986875080456	    -33.51132987961517528674	    -36.74051939571593550227	     13.29428304554801876236	      0.23202901083687221817	    -20.61117425617945997374	      0.00000000000000000000	      0.00000000000000000000	    -33.45737425745004856026	      3.24721370538675291328	      2.87691780682038578121	     39.11255863081288453031	    -10.38085290002918270602	     40.94823128069185003142	      1.74340202780576691843	     71.78815231858111189922	      0.00000000000000000000	      0.00000000000000000000	     28.66708699143376648522	     -4.75807197435723061574	     71.94177872159268360974	      2.37690842114183054079	      8.75640507441132953659	      0.00000000000000000000	      0.00000000000000000000
      5.42999999999999971578	     12.18074792175823972684	      0.68195240245786437061	   -177.75754521735831303886	      0.37817642261928330338	      0.76292252267941740307	     -0.98552217771141026326	     33.24955533073237745612	    -38.22777511538249228806	    -38.84130144842846021902	     21.70937005272894992913	      0.37889998595397517134	    -19.28176534998586433289	      0.00000000000000000000	      0.00000000000000000000	     33.22210327786192607391	    -33.52211838854970693546	    -36.74580535369310752003	     13.28211471365778351128	      0.23181663338091218485	    -20.56833185046278344998	      0.00000000000000000000	      0.00000000000000000000	    -33.13826723285378506034	      3.22222782582547306873	      2.85861506845005086674	     38.82691345325439158387	    -10.36941779000255081655	     41.51139439656504492859	      1.75963192112118260724	     71.57959137186497855510	      0.00000000000000000000	      0.00000000000000000000	     28.40649290027577222872	     -4.73407994149060584732	     71.10444295099654254955	      2.42931365281315470028	      8.46883690313415371520	      0.00000000000000000000	      0.00000000000000000000
      5.43499999999999960920	     12.00411448067631070558	      0.64349979232118792449	   -177.89336981384539626561	      0.37733577878450241805	      0.76346230135605896994	     -0.98560833394510971583	     33.00730183429647013327	    -38.13061795297206657551	    -38.80124308446797698480	     21.54697427631007400350	      0.37606564496413324994	    -19.29975289593663845267	      0.00000000000000000000	      0.00000000000000000000	     32.87393923842034126892	    -33.57250625853134096133	    -36.87953361600944646170	     13.32186042987883567434	      0.23251032699253285085	    -20.46647067322442836712	      0.00000000000000000000	      0.00000000000000000000	    -32.85957703730563395084	      3.04550494479292943595	      3.10159594087687340291	     38.54678616747554542599	    -10.50856585020954980791	     40.99727629203330536711	      1.74180856911740655768	     73.43165843196506159529	      0.00000000000000000000	      0.00000000000000000000	     28.19541980561706751018	     -4.77754702317880486362	     71.54313577242756139185	      2.45205404934542281481	      8.81400240187754135945	      0.00000000000000000000	      0.00000000000000000000
      5.44000000000000039080	     11.84110526795550377699	      0.52693376278320480655	   -177.89845518544498759184	      0.37659625128805956917	      0.76394236634278578357	     -0.98534255380221291709	     32.74640966804268060741	    -38.20179419277862109539	    -38.79458477966620932875	     21.41626073459656609543	      0.37378426328428954184	    -19.33938680574960855552	      0.00000000000000000000	      0.00000000000000000000	     32.56351109472588234439	    -33.42957971858199073267	    -36.94008436252269689248	     13.27817408265270771039	      0.23174785639526743197	    -20.39123028656069180897	      0.00000000000000000000	      0.00000000000000000000	    -32.57715018813912877249	      2.91213055132807552283	      2.98676118777103605240	     38.27395679072338197102	    -10.48799758720604735629	     41.79623021776023961138	      1.72633235053246725244	     73.30559895298215167259	      0.00000000000000000000	      0.00000000000000000000	     27.97718348007763822238	     -4.68139788919160615421	     70.32390194101016334116	      2.43246152500244328110	      8.95193365111262728817	      0.00000000000000000000	      0.00000000000000000000
      5.44500000000000028422	     11.68787389419464339824	      0.52944382992987093495	   -177.97684048689762903450	      0.37585792505166892852	      0.76437322871945267977	     -0.98530460256627794280	     32.48566519870525581837	    -38.10129109896066523788	    -38.80597275945389412755	     21.25080931744558654373	      0.37089659130291435796	    -19.35994152698999570816	      0.00000000000000000000	      0.00000000000000000000	     32.35164986593444069740	    -33.51645707722082079272	    -36.93037032817004217122	     13.41890372599278968835	      0.23420405202670918632	    -20.29327730758466330485	      0.00000000000000000000	      0.00000000000000000000	    -32.26521647534941905633	      2.82136896549169380322	      3.13498798306055537211	     37.97100374953222967633	    -10.59126449719628482171	     42.20383097708757702549	      1.73713397044017514581	     73.96377412771627746224	      0.00000000000000000000	      0.00000000000000000000	     27.73507045775250645647	     -4.69580929419504577993	     70.55297510429934959575	      2.47828688910159833370	      8.70055217142612491443	      0.00000000000000000000	      0.00000000000000000000
      5.45000000000000017764	     11.47742937001796903473	      0.47462796026703113483	   -178.05101263171053460610	      0.37491583510602793927	      0.76497101907295905754	     -0.98516129393417628535	     32.13246905818003540389	    -38.03758222184598736249	    -38.80996861829076749473	     21.03325882057006523951	      0.36709961884308683899	    -19.39508147777392110811	      0.00000000000000000000	      0.00000000000000000000	     31.98091264357826801756	    -33.50373053546699253502	    -37.04494956015918205594	     13.44740579375720379574	      0.23470150695282473996	    -20.13642643591828473859	      0.00000000000000000000	      0.00000000000000000000	    -32.02030434093020261344	      2.70496543968044234063	      3.15918087709895445414	     37.61010652301897039251	    -10.54101196689313013621	     42.92775681966826084590	      1.75099432726168835472	     71.76406440337004255525	      0.00000000000000000000	      0.00000000000000000000	     27.51009788996614702228	     -4.56729034298849789764	     69.29470740055656108325	      2.45553800447629066994	      8.88793055769235351704	      0.00000000000000000000	      0.00000000000000000000
